<svg width="32" height="40" viewBox="0 0 32 40" fill="none" xmlns="http://www.w3.org/2000/svg">
<path d="M21.316 32.392C20.3293 33.052 19.2547 33.3337 17.1467 33.3337H14.856C12.7467 33.3337 11.6733 33.052 10.6853 32.392C9.84532 31.832 9.20177 31.0275 8.75466 29.9787C8.22666 28.7453 8.00132 27.402 8.00132 24.7653L8.00132 15.2353C8.00132 12.5987 8.22666 11.257 8.75466 10.022C9.18798 8.99184 9.8612 8.15032 10.6853 7.60866C11.672 6.94866 12.7467 6.66699 14.856 6.66699H17.1467C19.256 6.66699 20.3293 6.94866 21.3173 7.60866C22.1414 8.15032 22.8147 8.99184 23.248 10.022C23.7747 11.2553 24 12.5987 24 15.2337L24 24.767C24 27.4037 23.7747 28.7453 23.2467 29.9803C22.8133 31.0105 22.1401 31.8503 21.316 32.392ZM14.8547 36.667H17.1467C19.832 36.667 21.272 36.2037 22.576 35.332C23.8642 34.479 24.9174 33.1613 25.5987 31.5503C26.296 29.922 26.6667 28.122 26.6667 24.7653L26.6667 15.2353C26.6667 11.8787 26.296 10.0787 25.5987 8.45032C24.9169 6.83821 23.8627 5.51992 22.5733 4.66699C21.2693 3.79699 19.8293 3.33199 17.144 3.33199H14.8533C12.168 3.33199 10.728 3.79699 9.42532 4.66699C8.13593 5.51992 7.08176 6.83821 6.39999 8.45032C5.70399 10.0787 5.33199 11.8787 5.33199 15.2353L5.33199 24.767C5.33199 28.1237 5.70399 29.9237 6.39999 31.5537C7.08219 33.1645 8.13632 34.4816 9.42532 35.3337C10.7293 36.2037 12.1707 36.667 14.8547 36.667ZM14.6667 30.0003H17.3333V21.667H14.6667L14.6667 30.0003Z" fill="#FFACEE"/>
</svg>
